<svg width="360" height="260" viewBox="0 0 360 260" fill="none" xmlns="http://www.w3.org/2000/svg">
  <defs>
    <linearGradient id="chartBg" x1="40" y1="20" x2="320" y2="240" gradientUnits="userSpaceOnUse">
      <stop offset="0" stop-color="#1E1B4B"/>
      <stop offset="1" stop-color="#0F172A"/>
    </linearGradient>
    <linearGradient id="chartLine" x1="70" y1="210" x2="290" y2="70" gradientUnits="userSpaceOnUse">
      <stop offset="0" stop-color="#22D3EE"/>
      <stop offset="0.5" stop-color="#6366F1"/>
      <stop offset="1" stop-color="#F472B6"/>
    </linearGradient>
    <linearGradient id="chartFill" x1="120" y1="220" x2="240" y2="90" gradientUnits="userSpaceOnUse">
      <stop offset="0" stop-color="#22D3EE" stop-opacity="0.18"/>
      <stop offset="1" stop-color="#F472B6" stop-opacity="0.05"/>
    </linearGradient>
  </defs>
  <rect x="12" y="12" width="336" height="236" rx="28" fill="url(#chartBg)" stroke="rgba(148, 163, 184, 0.12)" stroke-width="1"/>
  <g opacity="0.35">
    <path d="M68 206H308" stroke="#64748B" stroke-width="1.5" stroke-linecap="round" stroke-dasharray="4 8"/>
    <path d="M68 170H308" stroke="#64748B" stroke-width="1.5" stroke-linecap="round" stroke-dasharray="4 8"/>
    <path d="M68 134H308" stroke="#64748B" stroke-width="1.5" stroke-linecap="round" stroke-dasharray="4 8"/>
    <path d="M68 98H308" stroke="#64748B" stroke-width="1.5" stroke-linecap="round" stroke-dasharray="4 8"/>
    <path d="M68 62H308" stroke="#64748B" stroke-width="1.5" stroke-linecap="round" stroke-dasharray="4 8"/>
  </g>
  <path d="M76 200L118 178L150 188L196 138L234 166L270 96L304 112V220H76V200Z" fill="url(#chartFill)"/>
  <path d="M76 200L118 178L150 188L196 138L234 166L270 96L304 112" stroke="url(#chartLine)" stroke-width="6" stroke-linecap="round" stroke-linejoin="round"/>
  <g>
    <circle cx="118" cy="178" r="8" fill="#0EA5E9"/>
    <circle cx="196" cy="138" r="9" fill="#6366F1"/>
    <circle cx="270" cy="96" r="10" fill="#F472B6"/>
  </g>
  <rect x="44" y="36" width="120" height="42" rx="12" fill="#111827" fill-opacity="0.8"/>
  <text x="64" y="62" fill="#E0F2FE" font-family="'Manrope', 'Arial', sans-serif" font-size="15" font-weight="600">Progression</text>
  <rect x="206" y="32" width="116" height="46" rx="14" fill="#1E293B" fill-opacity="0.85" stroke="rgba(148, 163, 184, 0.2)"/>
  <text x="224" y="58" fill="#C7D2FE" font-family="'Space Grotesk', 'Manrope', 'Arial', sans-serif" font-size="14" font-weight="600">Top 50 Global</text>
</svg>
