<svg width="280" height="340" viewBox="0 0 280 340" fill="none" xmlns="http://www.w3.org/2000/svg">
  <defs>
    <linearGradient id="cardBg" x1="30" y1="30" x2="250" y2="310" gradientUnits="userSpaceOnUse">
      <stop offset="0" stop-color="#1E293B"/>
      <stop offset="1" stop-color="#0F172A"/>
    </linearGradient>
    <linearGradient id="cardBorder" x1="10" y1="12" x2="270" y2="328" gradientUnits="userSpaceOnUse">
      <stop offset="0" stop-color="#60A5FA" stop-opacity="0.65"/>
      <stop offset="0.5" stop-color="#A855F7" stop-opacity="0.5"/>
      <stop offset="1" stop-color="#EC4899" stop-opacity="0.65"/>
    </linearGradient>
    <linearGradient id="button" x1="70" y1="280" x2="210" y2="310" gradientUnits="userSpaceOnUse">
      <stop offset="0" stop-color="#6366F1"/>
      <stop offset="1" stop-color="#EC4899"/>
    </linearGradient>
  </defs>
  <rect x="1.5" y="1.5" width="277" height="337" rx="34" fill="url(#cardBg)" stroke="url(#cardBorder)" stroke-width="3"/>
  <rect x="26" y="36" width="228" height="88" rx="24" fill="#111827" fill-opacity="0.9"/>
  <text x="50" y="70" fill="#BFDBFE" font-family="'Space Grotesk', 'Manrope', 'Arial', sans-serif" font-size="16" font-weight="600">DSP HUB</text>
  <text x="50" y="98" fill="#E2E8F0" font-family="'Manrope', 'Arial', sans-serif" font-size="14" font-weight="500">Vos titres sur toutes les plateformes</text>
  <g transform="translate(48 140)">
    <rect x="0" y="0" width="60" height="60" rx="18" fill="#111827"/>
    <circle cx="30" cy="30" r="16" fill="#10B981"/>
    <path d="M24 20V40L40 30L24 20Z" fill="white"/>
  </g>
  <g transform="translate(124 140)">
    <rect x="0" y="0" width="60" height="60" rx="18" fill="#111827"/>
    <circle cx="30" cy="30" r="16" fill="#6366F1"/>
    <path d="M22 34C22 26.268 28.268 20 36 20H38V26H36C31.582 26 28 29.582 28 34C28 38.418 31.582 42 36 42H38V48H36C28.268 48 22 41.732 22 34Z" fill="white"/>
  </g>
  <g transform="translate(200 140)">
    <rect x="0" y="0" width="60" height="60" rx="18" fill="#111827"/>
    <circle cx="30" cy="30" r="16" fill="#0EA5E9"/>
    <rect x="24" y="22" width="12" height="16" rx="6" fill="white"/>
    <rect x="28" y="18" width="4" height="8" rx="2" fill="white"/>
  </g>
  <g transform="translate(48 216)">
    <rect x="0" y="0" width="60" height="60" rx="18" fill="#111827"/>
    <circle cx="30" cy="30" r="16" fill="#EC4899"/>
    <path d="M30 20C24.477 20 20 24.477 20 30C20 35.523 24.477 40 30 40C35.523 40 40 35.523 40 30C40 24.477 35.523 20 30 20ZM30 36C26.686 36 24 33.314 24 30C24 26.686 26.686 24 30 24C33.314 24 36 26.686 36 30C36 33.314 33.314 36 30 36Z" fill="white"/>
  </g>
  <g transform="translate(124 216)">
    <rect x="0" y="0" width="60" height="60" rx="18" fill="#111827"/>
    <circle cx="30" cy="30" r="16" fill="#F59E0B"/>
    <path d="M30 20L35.196 28.992L44 30.472L37 36.992L38.392 46L30 41.6L21.608 46L23 36.992L16 30.472L24.804 28.992L30 20Z" fill="white"/>
  </g>
  <g transform="translate(200 216)">
    <rect x="0" y="0" width="60" height="60" rx="18" fill="#111827"/>
    <circle cx="30" cy="30" r="16" fill="#22D3EE"/>
    <path d="M34 22V38C34 39.1046 33.1046 40 32 40H28C26.8954 40 26 39.1046 26 38V22H22V20C22 18.3431 23.3431 17 25 17H35C36.6569 17 38 18.3431 38 20V22H34Z" fill="white"/>
  </g>
  <rect x="76" y="286" width="128" height="38" rx="19" fill="url(#button)"/>
  <text x="90" y="310" fill="white" font-family="'Manrope', 'Arial', sans-serif" font-size="14" font-weight="700">Explorer les DSP</text>
</svg>
