<svg xmlns="http://www.w3.org/2000/svg" viewBox="0 0 64 64">
  <rect width="64" height="64" rx="14" fill="#021F3A" />
  <path fill="#00A0FF" d="M32 13c9.8 0 17.8 6.7 17.8 16.6 0 3.8-1 6.9-2.9 9.8l1.1 7.6-7.2-2.4c-2.3 1.4-5.3 2.2-8.8 2.2s-6.6-.8-8.9-2.2l-7.1 2.4 1.1-7.6c-1.8-2.9-2.9-6-2.9-9.8C14.2 19.7 22.2 13 32 13Zm0 6.2c-6.2 0-11.2 4-11.2 10.4 0 6.3 5 10.4 11.2 10.4s11.2-4.1 11.2-10.4c0-6.4-5-10.4-11.2-10.4Z"/>
  <path fill="#fff" d="M25.5 32.7c0-3.5 2.9-6.2 6.5-6.2s6.5 2.7 6.5 6.2-2.9 6.2-6.5 6.2-6.5-2.8-6.5-6.2Z" opacity="0.9" />
</svg>
