<svg xmlns="http://www.w3.org/2000/svg" viewBox="0 0 168 168" role="presentation" aria-hidden="true" focusable="false">
  <path fill="currentColor" d="M84 0a84 84 0 1 0 0 168A84 84 0 0 0 84 0Zm38.7 121.2a5.2 5.2 0 0 1-7.1 1.7c-19.5-12-44-14.7-72.9-8.1a5.2 5.2 0 1 1-2.3-10.1c31.5-7.2 59.5-4 81 9.5a5.2 5.2 0 0 1 1.3 7Zm10.2-22.5a6.5 6.5 0 0 1-8.8 2.2c-22.3-13.8-56.3-17.9-82.6-9.9a6.5 6.5 0 1 1-3.8-12.5c29.7-8.9 67.4-4.3 92.8 11.3a6.5 6.5 0 0 1 2.4 9Zm.9-23.1A7.8 7.8 0 0 1 125 76c-25.6-15.2-67.7-16.6-92.1-9.2a7.8 7.8 0 1 1-4.3-15c28.9-8.3 75.4-6.8 104.8 10.8a7.8 7.8 0 0 1 2.4 10Z"/>
</svg>
