<svg xmlns="http://www.w3.org/2000/svg" viewBox="0 0 64 64" role="img" aria-label="TikTok">
  <title>TikTok</title>
  <g fill="none" fill-rule="evenodd">
    <path fill="#25F4EE" d="M26.4 23.4c-7.2 0-13 5.8-13 13s5.8 13 13 13c2.1 0 4.1-.5 5.9-1.3v-7.4c-1.7 1.4-3.8 2.2-5.9 2.2-4.9 0-8.9-4-8.9-8.9s4-8.9 8.9-8.9c2.2 0 4.2.8 5.9 2.1v-7.3c-1.8-.8-3.8-1.3-5.9-1.3Z"/>
    <path fill="#FE2C55" d="M46.6 20.8c-4.1-.6-7.8-2.4-10.9-5.2v20.8c0 7.6-6.2 13.8-13.8 13.8-2.7 0-5.3-.8-7.4-2.1 2.8 3.8 7.4 6.2 12.4 6.2 8.6 0 15.6-7 15.6-15.6V19c2.2 1.2 4.6 2.1 7.1 2.4v-0.6Z"/>
    <path fill="#010101" d="M47.5 18.3c-3.9-.9-7.4-2.8-10.3-5.5l-0.3-.3h-8.8v23.7c0 4.9-4 8.9-8.9 8.9s-8.9-4-8.9-8.9c0-4.5 3.3-8.2 7.6-8.8 1-.1 2 0 3 .3v-7.9c-1.6-.4-3.2-.5-4.8-.3-8 1-14.3 7.8-14.3 15.9 0 8.9 7.3 16.1 16.1 16.1 8.9 0 16.1-7.3 16.1-16.1V21.5c3.2 2.2 7 3.6 10.9 3.9 1 .1 1.9.1 2.8 0V18.3Z"/>
  </g>
</svg>
